HIERARCHY
ROOT Hips
{
    OFFSET   0.000000   0.000000   0.000000
    CHANNELS 6 Xposition Yposition Zposition Zrotation Xrotation Yrotation
    JOINT Chest
    {
        OFFSET   0.000000   8.007230   0.000000
        CHANNELS 3 Zrotation Xrotation Yrotation
        JOINT Chest2
        {
            OFFSET   0.000000  22.077100   0.000000
            CHANNELS 3 Zrotation Xrotation Yrotation
            JOINT Neck
            {
                OFFSET   0.000000  23.254700   0.000000
                CHANNELS 3 Zrotation Xrotation Yrotation
                JOINT Head
                {
                    OFFSET   0.000010  14.370000   1.956610
                    CHANNELS 3 Zrotation Xrotation Yrotation
                    End Site
                    {
                        OFFSET   0.000000  19.566000   0.000000
                    }
                }
            }
            JOINT LeftCollar
            {
                OFFSET   3.911900  19.017000  -0.467063
                CHANNELS 3 Zrotation Xrotation Yrotation
                JOINT LeftShoulder
                {
                    OFFSET  10.383700   0.000000   0.000000
                    CHANNELS 3 Zrotation Xrotation Yrotation
                    JOINT LeftElbow
                    {
                        OFFSET  26.662100   0.001671   0.000522
                        CHANNELS 3 Zrotation Xrotation Yrotation
                        JOINT LeftWrist
                        {
                            OFFSET  28.869000   0.000037  -0.000114
                            CHANNELS 3 Zrotation Xrotation Yrotation
                            JOINT LeftFinger0
                            {
                                OFFSET   2.044650  -2.323450   3.252850
                                CHANNELS 3 Zrotation Xrotation Yrotation
                                JOINT LeftFinger01
                                {
                                    OFFSET   3.088140   0.000000   0.000000
                                    CHANNELS 3 Zrotation Xrotation Yrotation
                                    JOINT LeftFinger02
                                    {
                                        OFFSET   2.639460   0.000000   0.000000
                                        CHANNELS 3 Zrotation Xrotation Yrotation
                                        End Site
                                        {
                                            OFFSET   2.582190   0.000000   0.000000
                                        }
                                    }
                                }
                            }
                            JOINT LeftFinger1
                            {
                                OFFSET   8.364480   0.000000   3.252850
                                CHANNELS 3 Zrotation Xrotation Yrotation
                                JOINT LeftFinger11
                                {
                                    OFFSET   4.646930   0.000000   0.000000
                                    CHANNELS 3 Zrotation Xrotation Yrotation
                                    JOINT LeftFinger12
                                    {
                                        OFFSET   2.323470   0.000000   0.000000
                                        CHANNELS 3 Zrotation Xrotation Yrotation
                                        End Site
                                        {
                                            OFFSET   2.273050   0.000000   0.000000
                                        }
                                    }
                                }
                            }
                            JOINT LeftFinger2
                            {
                                OFFSET   8.364490   0.000016   1.078090
                                CHANNELS 3 Zrotation Xrotation Yrotation
                                JOINT LeftFinger21
                                {
                                    OFFSET   5.111620   0.000000   0.000000
                                    CHANNELS 3 Zrotation Xrotation Yrotation
                                    JOINT LeftFinger22
                                    {
                                        OFFSET   2.788150   0.000013   0.000000
                                        CHANNELS 3 Zrotation Xrotation Yrotation
                                        End Site
                                        {
                                            OFFSET   2.727660   0.000000   0.000000
                                        }
                                    }
                                }
                            }
                            JOINT LeftFinger3
                            {
                                OFFSET   7.899780   0.000016  -1.078090
                                CHANNELS 3 Zrotation Xrotation Yrotation
                                JOINT LeftFinger31
                                {
                                    OFFSET   4.646930   0.000000   0.000000
                                    CHANNELS 3 Zrotation Xrotation Yrotation
                                    JOINT LeftFinger32
                                    {
                                        OFFSET   2.323470   0.000000   0.000000
                                        CHANNELS 3 Zrotation Xrotation Yrotation
                                        End Site
                                        {
                                            OFFSET   2.273050   0.000000   0.000000
                                        }
                                    }
                                }
                            }
                            JOINT LeftFinger4
                            {
                                OFFSET   7.435080   0.000000  -3.252850
                                CHANNELS 3 Zrotation Xrotation Yrotation
                                JOINT LeftFinger41
                                {
                                    OFFSET   3.717550   0.000000   0.000000
                                    CHANNELS 3 Zrotation Xrotation Yrotation
                                    JOINT LeftFinger42
                                    {
                                        OFFSET   1.858760   0.000000   0.000000
                                        CHANNELS 3 Zrotation Xrotation Yrotation
                                        End Site
                                        {
                                            OFFSET   1.818440   0.000000   0.000000
                                        }
                                    }
                                }
                            }
                        }
                    }
                }
            }
            JOINT RightCollar
            {
                OFFSET  -3.911900  19.017000  -0.467064
                CHANNELS 3 Zrotation Xrotation Yrotation
                JOINT RightShoulder
                {
                    OFFSET -10.383700   0.000000   0.000000
                    CHANNELS 3 Zrotation Xrotation Yrotation
                    JOINT RightElbow
                    {
                        OFFSET -26.662100   0.001633   0.000260
                        CHANNELS 3 Zrotation Xrotation Yrotation
                        JOINT RightWrist
                        {
                            OFFSET -28.869000  -0.000045  -0.000080
                            CHANNELS 3 Zrotation Xrotation Yrotation
                            JOINT RightFinger0
                            {
                                OFFSET  -2.044660  -2.323490   3.252850
                                CHANNELS 3 Zrotation Xrotation Yrotation
                                JOINT RightFinger01
                                {
                                    OFFSET  -3.088140   0.000000   0.000000
                                    CHANNELS 3 Zrotation Xrotation Yrotation
                                    JOINT RightFinger02
                                    {
                                        OFFSET  -2.639450   0.000000   0.000000
                                        CHANNELS 3 Zrotation Xrotation Yrotation
                                        End Site
                                        {
                                            OFFSET  -2.582190   0.000000   0.000000
                                        }
                                    }
                                }
                            }
                            JOINT RightFinger1
                            {
                                OFFSET  -8.364480   0.000000   3.252850
                                CHANNELS 3 Zrotation Xrotation Yrotation
                                JOINT RightFinger11
                                {
                                    OFFSET  -4.646920   0.000000   0.000000
                                    CHANNELS 3 Zrotation Xrotation Yrotation
                                    JOINT RightFinger12
                                    {
                                        OFFSET  -2.323470   0.000000   0.000000
                                        CHANNELS 3 Zrotation Xrotation Yrotation
                                        End Site
                                        {
                                            OFFSET  -2.273050   0.000000   0.000000
                                        }
                                    }
                                }
                            }
                            JOINT RightFinger2
                            {
                                OFFSET  -8.364480   0.000000   1.078090
                                CHANNELS 3 Zrotation Xrotation Yrotation
                                JOINT RightFinger21
                                {
                                    OFFSET  -5.111610   0.000000   0.000000
                                    CHANNELS 3 Zrotation Xrotation Yrotation
                                    JOINT RightFinger22
                                    {
                                        OFFSET  -2.788160   0.000000   0.000000
                                        CHANNELS 3 Zrotation Xrotation Yrotation
                                        End Site
                                        {
                                            OFFSET  -2.727660   0.000000   0.000000
                                        }
                                    }
                                }
                            }
                            JOINT RightFinger3
                            {
                                OFFSET  -7.899780   0.000000  -1.078090
                                CHANNELS 3 Zrotation Xrotation Yrotation
                                JOINT RightFinger31
                                {
                                    OFFSET  -4.646930   0.000000   0.000000
                                    CHANNELS 3 Zrotation Xrotation Yrotation
                                    JOINT RightFinger32
                                    {
                                        OFFSET  -2.323470   0.000000   0.000000
                                        CHANNELS 3 Zrotation Xrotation Yrotation
                                        End Site
                                        {
                                            OFFSET  -2.273050   0.000000   0.000000
                                        }
                                    }
                                }
                            }
                            JOINT RightFinger4
                            {
                                OFFSET  -7.435090   0.000000  -3.252850
                                CHANNELS 3 Zrotation Xrotation Yrotation
                                JOINT RightFinger41
                                {
                                    OFFSET  -3.717550   0.000000   0.000000
                                    CHANNELS 3 Zrotation Xrotation Yrotation
                                    JOINT RightFinger42
                                    {
                                        OFFSET  -1.858760   0.000000   0.000000
                                        CHANNELS 3 Zrotation Xrotation Yrotation
                                        End Site
                                        {
                                            OFFSET  -1.818440   0.000000   0.000000
                                        }
                                    }
                                }
                            }
                        }
                    }
                }
            }
        }
    }
    JOINT LeftHip
    {
        OFFSET   9.782990   0.000000   0.000000
        CHANNELS 3 Zrotation Xrotation Yrotation
        JOINT LeftKnee
        {
            OFFSET  -0.000063 -41.789100   0.001657
            CHANNELS 3 Zrotation Xrotation Yrotation
            JOINT LeftAnkle
            {
                OFFSET   0.000078 -41.133200  -0.000113
                CHANNELS 3 Zrotation Xrotation Yrotation
                JOINT LeftToe
                {
                    OFFSET   0.000000  -6.358970  14.674500
                    CHANNELS 3 Zrotation Xrotation Yrotation
                    End Site
                    {
                        OFFSET   0.000000   0.000000   3.913200
                    }
                }
            }
        }
    }
    JOINT RightHip
    {
        OFFSET  -9.782990   0.000000   0.000000
        CHANNELS 3 Zrotation Xrotation Yrotation
        JOINT RightKnee
        {
            OFFSET   0.000053 -41.789200   0.000277
            CHANNELS 3 Zrotation Xrotation Yrotation
            JOINT RightAnkle
            {
                OFFSET   0.000030 -41.133200  -0.000150
                CHANNELS 3 Zrotation Xrotation Yrotation
                JOINT RightToe
                {
                    OFFSET   0.000000  -6.358960  14.674500
                    CHANNELS 3 Zrotation Xrotation Yrotation
                    End Site
                    {
                        OFFSET   0.000000   0.000000   3.913200
                    }
                }
            }
        }
    }
}
MOTION
Frames: 6
Frame Time:   0.016667
 -0.462597  89.504900   0.715905  -6.651730 -14.790000 -11.454600   1.431840   7.971560  -2.521670   3.268220  15.868400  -5.323790   4.406860   4.056590  -0.312116   7.340250   8.079860  -7.652880  -3.606950   0.882391   3.625650 -73.456000  20.894900  -8.399030  -0.520907  -4.489840 -17.572400   9.555710  -4.840140  -0.383473  38.131900  29.269600 -55.496600 -31.492900   0.004482   0.002757 -10.746500  -0.002277  -0.002553 -27.535900   4.345720  -8.269110 -22.787100  -0.003075  -0.000237 -15.950900   0.002773  -0.000053 -28.347100  -1.378470   2.553870 -34.903600   0.002661   0.002892 -23.245800   0.009711   0.004949 -27.819000  -1.354780   2.566530 -31.068400   0.001125  -0.003134 -20.691600   0.003579  -0.003125 -29.592300  -1.432120   2.524180 -44.435600  -0.002214  -0.004824 -29.594100   0.002148  -0.001781   7.447770   3.267120   8.344920  49.755800   1.985680  41.168600 -39.675700 -37.192500  73.708800  49.216000  16.631200   0.092808 -34.511400  35.827800  68.877600  40.031000   0.023224  -0.019691  15.819300   0.024315  -0.003854  14.038000   7.196270  25.414000  13.048200   0.012701   0.011667   9.133730   0.008829   0.001180  89.027200   0.009506   0.004568  91.295100  -0.008988  -0.036782  68.471400  -0.026469  -0.004709  88.915600  -4.985600  -0.091004  90.907000  -0.013968  -0.046953  68.180400  -0.034479  -0.004732  89.010100  -9.987420  -0.171680 110.000000  -0.007367  -0.000048  80.000000  -0.006273   0.005417   2.879760  19.184800   4.849700   1.024990  -0.008516   9.518380  -0.336025  -4.542080   2.982650   0.000000   0.000000   0.000000   5.562250  15.548400   1.878050  -1.219990   3.295270  -2.442490  -0.848803  -3.978860   0.943066  -0.000000   0.000000   0.000000
 -0.486125  89.501900   0.707106  -6.702230 -14.739800 -11.669300   1.436040   7.968400  -2.511720   3.275140  15.862300  -5.304030   4.409170   4.029180  -0.310110   7.342140   8.025230  -7.908980  -3.619950   0.859908   3.598360 -73.480100  20.853200  -8.374750  -0.551458  -4.524200 -17.403800   9.580600  -4.859670  -0.388122  38.127000  29.210100 -55.492000 -31.444700   0.004531   0.002769 -10.722400   0.001142  -0.002348 -27.526600   4.352690  -8.285630 -22.779900  -0.003605  -0.001097 -15.945900   0.002808  -0.000666 -28.347300  -1.328310   2.460330 -34.886000   0.002097   0.001821 -23.234100   0.010263   0.004584 -27.818300  -1.305550   2.472500 -31.052000   0.002146  -0.003177 -20.680700   0.003130  -0.003050 -29.579500  -1.380980   2.431240 -44.413100  -0.001913  -0.004496 -29.579100   0.001951  -0.001432   7.469660   3.181750   8.312570  50.025500   2.070110  41.254100 -39.114500 -37.823600  73.556300  46.155500  12.932000   4.000070 -34.914200  36.553500  68.786800  40.594100   0.037172  -0.031804  16.396900   0.040194  -0.004134   9.315610   4.785510  26.077500   8.612880  -0.115921   0.044373   6.029010  -0.077117   0.035760  88.696400   0.020722   0.017545  90.096300   0.004564  -0.045172  67.572300  -0.028904  -0.016611  88.024800  -4.971520  -0.156399  89.176000   0.002779  -0.053791  66.882000  -0.035070  -0.018192  88.853900  -9.971250  -0.183403 110.000000  -0.007462   0.000000  80.000000  -0.006333   0.005424   2.876020  19.172500   4.857610   1.032800   0.003948   9.637000  -0.337546  -4.568560   3.070410  -0.000000   0.000000   0.000000   5.572500  15.508600   1.893360  -1.215400   3.289820  -2.343140  -0.858608  -3.954270   1.042990   0.000000   0.000000  -0.000000
 -0.507300  89.500200   0.697771  -6.744810 -14.689400 -11.863500   1.439990   7.962670  -2.483500   3.278790  15.851500  -5.247100   4.416420   3.997120  -0.308304   7.352370   7.960980  -8.215350  -3.625300   0.837739   3.507950 -73.493900  20.815600  -8.337220  -0.583961  -4.550230 -17.262800   9.577090  -4.846720  -0.375430  38.116400  29.232000 -55.513100 -31.483100   0.004529   0.002817 -10.741600   0.002366  -0.002125 -27.520400   4.367440  -8.314980 -22.777200  -0.004131  -0.001975 -15.944000   0.002838  -0.001083 -28.343500  -1.328940   2.461790 -34.861600   0.001549   0.000771 -23.217800   0.010800   0.004225 -27.816500  -1.306200   2.473940 -31.043100   0.003190  -0.003211 -20.674800   0.002711  -0.002958 -29.570200  -1.381290   2.432880 -44.399700  -0.001588  -0.004154 -29.570100   0.001758  -0.001064   7.507370   3.062520   8.226710  50.217200   2.168160  41.319800 -38.769900 -38.224200  73.364100  43.017200   8.640060   6.307530 -35.892500  38.213500  69.041900  41.296100   0.036470  -0.031388  17.170200   0.039636  -0.004570   6.452470   3.005950  23.472700   5.099790  -0.115444   0.030389   3.585410  -0.078084   0.025470  87.435000   0.008746   0.035160  87.884600   0.028284  -0.017616  65.913500  -0.004234  -0.019996  86.322900  -4.974540  -0.290011  86.742900   0.025242  -0.026772  65.057200  -0.011041  -0.021226  87.873600  -9.968980  -0.336336 110.000000  -0.007560   0.000000  80.000000  -0.006321   0.005453   2.876360  19.166900   4.868670   1.037070   0.002754   9.743330  -0.342615  -4.589310   3.145190  -0.000000   0.000000   0.000000   5.579990  15.472000   1.915550  -1.208190   3.276030  -2.264900  -0.866286  -3.929770   1.137680   0.000000   0.000000   0.000000
 -0.526724  89.499600   0.687680  -6.780110 -14.638900 -12.034500   1.442850   7.955480  -2.453320   3.279850  15.838000  -5.185970   4.423240   3.962270  -0.306233   7.362270   7.891090  -8.524590  -3.629190   0.813116   3.410980 -73.495100  20.794100  -8.305960  -0.613351  -4.580820 -17.139900   9.561780  -4.808880  -0.357562  38.097000  29.264000 -55.542600 -31.539500   0.004518   0.002856 -10.769800   0.002971  -0.001884 -27.514300   4.381720  -8.344380 -22.773400  -0.004661  -0.002847 -15.941400   0.002861  -0.001886 -28.340100  -1.329570   2.463250 -34.834500   0.001028  -0.000240 -23.199800   0.011309   0.003886 -27.814500  -1.306850   2.475390 -31.030200   0.004241  -0.003235 -20.666100   0.002334  -0.002847 -29.558000  -1.381610   2.434520 -44.381000  -0.001241  -0.003821 -29.557700   0.001576  -0.000674   7.539850   2.941770   8.140110  50.352700   2.293810  41.353300 -38.581100 -38.385100  73.272600  39.111200   6.109220   7.158330 -37.132600  40.421000  69.827500  41.963200   0.031559  -0.028479  17.921900   0.035731  -0.005069   4.115970   1.459640  18.886700   2.434600  -0.112112   0.010668   1.704230  -0.078223   0.010676  85.570100  -0.017694   0.046657  85.399300   0.044550   0.025278  64.049500   0.031669  -0.020479  84.346400  -4.978860  -0.451513  84.223800   0.039862   0.012764  63.167800   0.022036  -0.021659  86.295900  -9.967880  -0.604706 110.000000  -0.007660   0.000000  80.000000  -0.006309   0.005474   2.879980  19.160000   4.881070   1.038990   0.001560   9.839280  -0.350250  -4.607500   3.205710  -0.000000   0.000000  -0.000000   5.584670  15.435000   1.939730  -1.198590   3.260590  -2.194330  -0.873480  -3.906590   1.216270   0.000000   0.000000   0.000000
 -0.544287  89.500200   0.675580  -6.807330 -14.588500 -12.176700   1.443240   7.948470  -2.431800   3.277290  15.824600  -5.141990   4.425030   3.924450  -0.303288   7.365630   7.815600  -8.805850  -3.636720   0.779395   3.359380 -73.471900  20.813200  -8.299100  -0.638294  -4.638640 -17.023700   9.517870  -4.733220  -0.351788  38.080000  29.273200 -55.570700 -31.572800   0.004454   0.002807 -10.786400   0.003649  -0.001624 -27.493100   4.387510  -8.363360 -22.756000  -0.005197  -0.003262 -15.929300   0.002875  -0.003717 -28.337100  -1.328950   2.462200 -34.800800   0.000547  -0.001194 -23.177400   0.011778   0.003583 -27.808200  -1.306210   2.474350 -30.993500   0.005284  -0.003248 -20.641700   0.002013  -0.002723 -29.525000  -1.380150   2.433660 -44.331500  -0.000874  -0.003518 -29.524700   0.001410  -0.000258   7.555200   2.834490   8.104220  50.419400   2.459600  41.326300 -38.609500 -38.299400  73.305900  34.031600   6.305080   6.018140 -39.014800  43.245900  71.610000  42.485800   0.012101  -0.015885  18.523000   0.013969  -0.005557   1.489860   0.378558  14.244200   0.678993  -0.048498   0.001706   0.335373  -0.034839   0.003095  83.571200  -0.063572   0.040296  83.390300   0.035987   0.049985  62.542700   0.046368  -0.009542  82.532600  -4.979810  -0.615922  82.408500   0.029307   0.029853  61.806300   0.030618  -0.011497  84.585500  -9.965370  -0.907277 110.000000  -0.007757   0.000038  79.977800  -0.006367   0.005473   2.885770  19.146200   4.891710   1.040160   0.001835   9.927760  -0.360026  -4.624960   3.247220   0.000000   0.000000   0.000000   5.583910  15.393000   1.961920  -1.186210   3.249270  -2.111820  -0.880601  -3.886930   1.261620   0.000000   0.000000   0.000000
 -0.560995  89.503200   0.664403  -6.827850 -14.539900 -12.292200   1.442550   7.938930  -2.421510   3.273750  15.805900  -5.120620   4.424930   3.887430  -0.300125   7.361640   7.741960  -9.058640  -3.645800   0.749130   3.340060 -73.442500  20.850500  -8.300030  -0.655534  -4.706760 -16.916200   9.486250  -4.660540  -0.346714  38.070200  29.274200 -55.587100 -31.588200   0.004318   0.002705 -10.794100   0.004149  -0.001360 -27.462400   4.391250  -8.380540 -22.732600  -0.005736  -0.004474 -15.912900   0.002884  -0.006158 -28.334300  -1.324610   2.454820 -34.765100   0.000111  -0.002067 -23.153600   0.012194   0.003323 -27.800800  -1.301690   2.467040 -30.949900   0.006308  -0.003259 -20.612600   0.001758  -0.002583 -29.486900  -1.373770   2.427660 -44.274100  -0.000493  -0.003264 -29.486500   0.001284   0.000187   7.560010   2.777720   8.095470  50.481900   2.639690  41.276400 -38.705400 -37.951600  73.383800  28.226300   7.604340   3.695390 -40.976900  45.758300  73.928000  42.740100  -0.009481  -0.005785  18.821100  -0.012032  -0.005972  -1.298400  -0.311495   9.845770   0.000000   0.012258  -0.001519  -0.248763   0.008545  -0.000277  81.599100  -0.094986   0.033934  81.601400   0.027424   0.077523  61.201100   0.060961   0.010111  80.973800  -4.981850  -0.758084  81.008300   0.018752   0.046338  60.756100   0.037318   0.004614  83.002900  -9.963390  -1.187320 110.000000  -0.007856   0.000094  79.955600  -0.006426   0.005463   2.893390  19.129400   4.903150   1.040770   0.002110  10.002900  -0.371349  -4.640640   3.275260  -0.000000   0.000000   0.000000   5.582700  15.349200   1.981880  -1.172580   3.241010  -2.031640  -0.888941  -3.869610   1.280550   0.000000   0.000000   0.000000
